<!-- assets/gear.svg -->
<svg xmlns="http://www.w3.org/2000/svg" width="120" height="120" viewBox="0 0 120 120">
  <style>
    .spin { transform-origin:60px 60px; animation: spin 4s linear infinite; }
    @keyframes spin { from { transform: rotate(0deg);} to { transform: rotate(360deg);} }
  </style>
  <rect width="100%" height="100%" fill="transparent"/>
  <g class="spin" fill="#9BD3E6" stroke="#1f6f8b" stroke-width="1.8">
    <path d="M60 36 L66 36 L68 28 L76 30 L80 24 L88 28 L86 36 L92 40 L90 48 L96 54 L92 60 L96 66 L92 72 L96 78 L90 84 L88 92 L80 88 L76 94 L68 92 L66 84 L60 84 L54 84 L52 92 L44 94 L40 88 L32 92 L30 84 L24 78 L28 72 L24 66 L28 60 L24 54 L30 48 L28 40 L34 36 L40 28 L48 30 L50 38 Z"/>
    <circle cx="60" cy="60" r="18" fill="#ffffff" stroke="none"/>
  </g>
</svg>

